<?xml version="1.0" encoding="UTF-8"?>
<svg id="Layer_1" data-name="Layer 1" xmlns="http://www.w3.org/2000/svg" version="1.1" viewBox="0 0 448 512">
  <defs>
    <style>
      .cls-1, .cls-2 {
        fill: #000;
      }

      .cls-1, .cls-3 {
        stroke-width: 0px;
      }

      .cls-2 {
        stroke: #fff;
        stroke-miterlimit: 10;
        stroke-width: 10.7px;
      }

      .cls-3 {
        fill: #fff;
      }
    </style>
  </defs>
  <rect class="cls-1" x="95.1" y="5.9" width="301.4" height="499" rx="30.3" ry="30.3"/>
  <rect class="cls-3" x="124.5" y="79.5" width="242.6" height="351.8"/>
  <path class="cls-2" d="M175.2,179.7c-6.6-.3-10.9-.7-15.2-.7-35.1,0-44.5.2-79.6-.1-19.5-.2-31.4-10.5-31.5-26.5-.2-16,11.8-26.9,31.1-26.9,61.1-.2,96.5-.3,157.5,0,20.3,0,30.8,10.1,30.9,29.9.4,61.4.5,97.1,0,158.5-.2,22.3-19.3,34.8-38.2,26.3-12.5-5.6-15.7-16.7-15.7-29.1,0-34.3,0-42.9,0-77.3,0-4.5,0-8.9,0-16.8-5.5,5.2-9,8.3-12.3,11.6-50.5,50.3-66.6,57.8-117.1,108-4.2,4.1-8.5,8.3-13.4,11.4-11.3,7.1-25.2,5.5-33.8-3.2-8.6-8.7-9.9-22.4-2.6-33.6,2.9-4.5,6.8-8.5,10.6-12.3,50.7-50,67.2-57.2,118-107.1,3.4-3.4,6.6-7,11.5-12.1Z"/>
</svg>