<svg fill="none" height="6" viewBox="0 0 8 6" width="8" xmlns="http://www.w3.org/2000/svg"><path d="m.125018 1.24999-.0999335.00365c.0043669.11967.0542521.23317.1394625.3173.000089.00009.000178.00018.000267.00026l3.499496 3.4995.00004.00004c.08906.08896.20979.13892.33567.13892.12587 0 .2466-.04996.33566-.13892l.00005-.00004 3.5-3.5.00955-.00955.00667-.01173c.05259-.09249.0726-.19996.05683-.30518s-.06641-.2021-.1438-.27511-.17705-.117924-.28301-.127543-.21208.016615-.30135.074496l-.00876.005674-.00739.007358-3.16445 3.149785-3.164335-3.149665c-.000006-.000006-.000012-.000012-.000018-.000018l-.000102-.000102zm0 0-.0999335-.00365c.0043673-.11968.0542617-.23319.1394865-.317324z" fill="#001123" stroke="#001123" stroke-width=".2"/></svg>