<svg width="14" height="24" viewBox="0 0 14 24" fill="none" xmlns="http://www.w3.org/2000/svg">
<path d="M2.02292 23L2.02659 23.0999C2.32034 23.0891 2.59878 22.9659 2.80504 22.7556C2.80514 22.7555 2.80525 22.7554 2.80535 22.7553L12.759 12.7415L12.7591 12.7414C12.9774 12.5214 13.1 12.2234 13.1 11.9127C13.1 11.6021 12.9774 11.304 12.7591 11.0841L12.759 11.084L2.80485 1.06973L2.79532 1.06013L2.78358 1.05342C2.55639 0.923469 2.29235 0.873987 2.03381 0.91297C1.77526 0.951953 1.53732 1.07712 1.35807 1.26827C1.17883 1.45941 1.06864 1.70547 1.04505 1.96697C1.02145 2.22847 1.08579 2.49042 1.22785 2.71085L1.23349 2.7196L1.24082 2.72701L10.3291 11.9127L1.24094 21.0984C1.02256 21.3183 0.9 21.6164 0.9 21.927C0.9 22.2376 1.02247 22.5355 1.24071 22.7555C1.44698 22.9659 1.72546 23.0891 2.01925 23.0999L2.02292 23Z" fill="#001123" stroke="#001123" stroke-width="0.2"/>
</svg>
