<?xml version="1.0" encoding="utf-8"?>
<!-- Generator: Adobe Illustrator 27.4.1, SVG Export Plug-In . SVG Version: 6.00 Build 0)  -->
<svg version="1.1" id="Layer_1" xmlns="http://www.w3.org/2000/svg" xmlns:xlink="http://www.w3.org/1999/xlink" x="0px" y="0px"
	 viewBox="0 0 512 512" style="enable-background:new 0 0 512 512;" xml:space="preserve">
<style type="text/css">
	.st0{fill:#AF1F00;}
	.st1{fill:#FFFFFF;}
</style>
<path class="st0" d="M256,493.9c131.4,0,237.9-106.5,237.9-237.9c0-131.4-106.5-237.9-237.9-237.9C124.6,18.1,18.1,124.6,18.1,256
	C18.1,387.4,124.6,493.9,256,493.9z"/>
<g>
	<path class="st1" d="M269.1,428.2l-0.6-7.4c39.3-2.9,76.3-19.9,104.3-47.9c28-28,45-65,47.9-104.3l7.4,0.6
		c-3.1,41-20.8,79.8-50.1,109C348.8,407.3,310.1,425.1,269.1,428.2z M242.9,428.2c-41-3.1-79.8-20.8-109-50.1
		c-29.2-29.2-47-67.9-50.1-109l7.4-0.6c2.9,39.3,19.9,76.3,47.9,104.3c28,28,65,45,104.3,47.9L242.9,428.2z M91.3,243.5l-7.4-0.6
		c3.1-41,20.8-79.8,50.1-109c29.2-29.2,67.9-47,109-50.1l0.6,7.4c-39.3,2.9-76.3,19.9-104.3,47.9C111.2,167.2,94.2,204.2,91.3,243.5
		z M420.7,243.5c-2.9-39.3-19.9-76.3-47.9-104.3c-28-28-65-45-104.3-47.9l0.6-7.4c41,3.1,79.8,20.8,109,50.1
		c29.2,29.2,47,67.9,50.1,109L420.7,243.5z"/>
	<path class="st1" d="M252.8,439.7l-10.7-0.8c-43.6-3.3-84.7-22.1-115.8-53.2c-31.1-31.1-49.9-72.2-53.2-115.8l-0.8-10.7l28.9-2.2
		l0.8,10.7c2.7,36.7,18.6,71.3,44.8,97.5c26.2,26.2,60.8,42.1,97.5,44.8l10.7,0.8L252.8,439.7z M259.2,439.7l-2.2-28.9l10.7-0.8
		c36.7-2.7,71.3-18.6,97.5-44.8c26.2-26.2,42.1-60.8,44.8-97.5l0.8-10.7l28.9,2.2l-0.8,10.7c-3.3,43.6-22.1,84.7-53.2,115.8
		c-31.1,31.1-72.2,49.9-115.8,53.2L259.2,439.7z M410.8,255l-0.8-10.7c-2.7-36.7-18.6-71.3-44.8-97.5
		c-26.2-26.2-60.8-42.1-97.5-44.8l-10.7-0.8l2.2-28.9l10.7,0.8c43.6,3.3,84.7,22.1,115.8,53.2c31.1,31.1,49.9,72.2,53.2,115.8
		l0.8,10.7L410.8,255z M101.2,255l-28.9-2.1l0.8-10.7c3.3-43.6,22.1-84.7,53.2-115.8c31.1-31.1,72.2-49.9,115.8-53.2l10.7-0.8
		l2.2,28.9l-10.7,0.8c-36.7,2.7-71.3,18.6-97.5,44.8c-26.2,26.2-42.1,60.8-44.8,97.5L101.2,255z"/>
	<path class="st1" d="M256,254.2l-22.1-22.1L256,68.4V254.2z"/>
	<path class="st1" d="M256,257.8l22.1,22.1L256,443.7V257.8z"/>
	<path class="st1" d="M281.6,230.4L256,39.8l-25.6,190.6L39.8,256l190.6,25.6L256,472.2l25.6-190.6L472.2,256L281.6,230.4z"/>
</g>
<path class="st0" d="M256,495.2l-28.4-210.8L16.8,256l210.8-28.4L256,16.8l28.4,210.8L495.2,256l-210.8,28.4L256,495.2z M62.8,256
	l170.3,22.9L256,449.2l22.9-170.3L449.2,256l-170.3-22.9L256,62.8l-22.9,170.3L62.8,256z"/>
<path class="st1" d="M348.9,245L326.9,267L163.1,245H348.9z"/>
<path class="st0" d="M353.2,172.4l1.9-7.2l-7.4,0.7c-14.1,1.4-138,14.1-161.6,34.3c-34.9,29.8-39,82.5-9.1,117.4
	c29.8,34.9,82.5,39,117.4,9.1C317.9,306.6,349.6,186.1,353.2,172.4z"/>
<path class="st1" d="M240.1,348.4c-2.2,0-4.5-0.1-6.7-0.3c-22.6-1.8-43.2-12.2-57.9-29.4c-14.7-17.2-21.8-39.1-20.1-61.7
	c1.8-22.6,12.2-43.2,29.4-57.9c10.1-8.6,38.7-16.9,85.1-24.5c35.9-5.9,70.7-9.5,77.3-10.1l9.6-0.9l-2.4,9.3
	c-1.7,6.4-10.6,40.3-21.9,74.8c-14.7,44.6-27.3,71.7-37.4,80.3C279.6,341.3,260.3,348.4,240.1,348.4z M352.8,167.1l-5.2,0.5
	c-14,1.4-137.5,14.1-160.8,33.9c-16.6,14.2-26.6,34-28.3,55.8c-1.7,21.8,5.2,42.9,19.3,59.5c14.2,16.6,34,26.6,55.8,28.3
	c21.8,1.7,42.9-5.2,59.5-19.3c23.2-19.9,54.8-139.9,58.4-153.6L352.8,167.1z"/>
</svg>
