<svg width="14" height="16" viewBox="0 0 14 16" fill="none" xmlns="http://www.w3.org/2000/svg">
<path d="M6.73823 13.1581C6.83266 13.2534 6.96072 13.3069 7.09425 13.3069C7.22779 13.3069 7.35585 13.2534 7.45028 13.1581L10.5176 10.0613C10.612 9.96592 10.6651 9.83663 10.6651 9.7018C10.6651 9.56698 10.612 9.43769 10.5176 9.34235C10.4232 9.24702 10.2951 9.19345 10.1616 9.19345C10.028 9.19345 9.89997 9.24702 9.80555 9.34235L7.57748 11.5919V1.50833C7.57748 1.37351 7.52445 1.24422 7.43003 1.14889C7.3356 1.05356 7.20753 1 7.074 1C6.94046 1 6.81241 1.05356 6.71799 1.14889C6.62357 1.24422 6.57051 1.37351 6.57051 1.50833V11.551L4.34245 9.30145C4.24802 9.20612 4.11996 9.15255 3.98642 9.15255C3.85288 9.15255 3.72482 9.20612 3.63039 9.30145C3.53597 9.39678 3.48291 9.52608 3.48291 9.6609C3.48291 9.79572 3.53597 9.92502 3.63039 10.0204L6.73823 13.1581Z" fill="white" stroke="white" stroke-width="0.4"/>
<path d="M12.6448 14.7207H1.50348C1.36995 14.7207 1.2419 14.7743 1.14748 14.8696C1.05306 14.9649 1 15.0942 1 15.229C1 15.3638 1.05306 15.4931 1.14748 15.5885C1.2419 15.6838 1.36995 15.7374 1.50348 15.7374H12.6448C12.7783 15.7374 12.9064 15.6838 13.0008 15.5885C13.0952 15.4931 13.1483 15.3638 13.1483 15.229C13.1483 15.0942 13.0952 14.9649 13.0008 14.8696C12.9064 14.7743 12.7783 14.7207 12.6448 14.7207Z" fill="white" stroke="white" stroke-width="0.4"/>
</svg>
