<?xml version="1.0" encoding="UTF-8"?>
<svg id="Layer_1" data-name="Layer 1" xmlns="http://www.w3.org/2000/svg" version="1.1" viewBox="0 0 576 512">
  <defs>
    <style>
      .cls-1 {
        fill: none;
      }

      .cls-1, .cls-2 {
        stroke-width: 0px;
      }

      .cls-2 {
        fill: #000;
      }
    </style>
  </defs>
  <path class="cls-1" d="M256,128c-17.7,0-32-14.3-32-32v-48H64c-8.8,0-16,7.2-16,16v288c0,8.8,7.2,16,16,16h104v-20.7h43.3l-40.2-76.7,5.3-42c8.8,0,43.1,12,43.1,3.2l4.2-24.8-2.6-63.2,27.8,37.8,55.1,22.2v-75.8h-48Z"/>
  <path class="cls-2" d="M64,368c-8.8,0-16-7.2-16-16V64c0-8.8,7.2-16,16-16h160v48c0,17.7,14.3,32,32,32h48v69.2h48v-74.7c0-17-6.7-33.3-18.7-45.3l-58.6-58.5C262.7,6.7,246.5,0,229.5,0H64C28.7,0,0,28.7,0,64v288c0,35.3,28.7,64,64,64h104v-48h-104Z"/>
  <g>
    <path class="cls-2" d="M351.9,252.9c0-13.3-10.7-24-24-24s-24,10.7-24,24v92.9l-31-31c-9.4-9.4-24.6-9.4-33.9,0s-9.4,24.6,0,33.9l72,72c9.4,9.4,24.6,9.4,33.9,0l72-72c9.4-9.4,9.4-24.6,0-33.9s-24.6-9.4-33.9,0l-31,31v-92.9h-.1Z"/>
    <path class="cls-2" d="M432.3,512c13.3,0,24-10.7,24-24s-10.7-24-24-24h-208.8c-13.3,0-24,10.7-24,24s10.7,24,24,24h208.8Z"/>
  </g>
</svg>