<svg width="18" height="18" viewBox="0 0 18 18" fill="none" xmlns="http://www.w3.org/2000/svg">
<path fill-rule="evenodd" clip-rule="evenodd" d="M9 1.34999C4.77502 1.34999 1.35 4.77502 1.35 8.99999C1.35 13.225 4.77502 16.65 9 16.65C13.225 16.65 16.65 13.225 16.65 8.99999C16.65 4.77502 13.225 1.34999 9 1.34999ZM0.650002 8.99999C0.650002 4.38842 4.38842 0.649994 9 0.649994C13.6116 0.649994 17.35 4.38842 17.35 8.99999C17.35 13.6116 13.6116 17.35 9 17.35C4.38842 17.35 0.650002 13.6116 0.650002 8.99999Z" fill="#001123"/>
<path fill-rule="evenodd" clip-rule="evenodd" d="M8.65 17V1H9.35V17H8.65Z" fill="#001123"/>
<path fill-rule="evenodd" clip-rule="evenodd" d="M6.26644 3.5089C5.52038 4.89634 5.04821 6.83711 5.04821 8.99999C5.04821 11.1629 5.52038 13.1037 6.26644 14.4911C7.02022 15.8929 8.00279 16.65 9 16.65C9.9972 16.65 10.9798 15.8929 11.7336 14.4911C12.4796 13.1037 12.9518 11.1629 12.9518 8.99999C12.9518 6.83711 12.4796 4.89634 11.7336 3.5089C10.9798 2.10709 9.9972 1.34999 9 1.34999C8.00279 1.34999 7.02022 2.10709 6.26644 3.5089ZM5.64992 3.17738C6.45307 1.68376 7.62139 0.649994 9 0.649994C10.3786 0.649994 11.5469 1.68376 12.3501 3.17738C13.161 4.68537 13.6518 6.7446 13.6518 8.99999C13.6518 11.2554 13.161 13.3146 12.3501 14.8226C11.5469 16.3162 10.3786 17.35 9 17.35C7.62139 17.35 6.45307 16.3162 5.64992 14.8226C4.83904 13.3146 4.34821 11.2554 4.34821 8.99999C4.34821 6.7446 4.83904 4.68537 5.64992 3.17738Z" fill="#001123"/>
<path fill-rule="evenodd" clip-rule="evenodd" d="M2.4901 3.77134C4.01995 1.86895 6.36753 0.649994 9 0.649994C11.6325 0.649994 13.9801 1.86895 15.5099 3.77134L15.7066 4.01598L15.4847 4.23806C14.9416 4.78168 14.0241 5.2121 12.9179 5.50832C11.8009 5.80743 10.4503 5.98068 9 5.98068C7.54969 5.98068 6.19906 5.80743 5.08211 5.50832C3.97591 5.2121 3.05845 4.78168 2.51526 4.23806L2.29336 4.01598L2.4901 3.77134ZM3.25252 3.95203C3.69717 4.28765 4.38235 4.59627 5.26318 4.83215C6.31326 5.11334 7.60218 5.28068 9 5.28068C10.3978 5.28068 11.6867 5.11334 12.7368 4.83215C13.6177 4.59627 14.3028 4.28765 14.7475 3.95203C13.345 2.35641 11.2903 1.34999 9 1.34999C6.70972 1.34999 4.65498 2.35641 3.25252 3.95203Z" fill="#001123"/>
<path fill-rule="evenodd" clip-rule="evenodd" d="M4.83488 12.0962C5.9977 11.7546 7.44168 11.5545 9 11.5545C10.5583 11.5545 12.0023 11.7546 13.1651 12.0962C14.3101 12.4326 15.2457 12.9248 15.7093 13.5571L15.862 13.7653L15.7081 13.9727C14.1871 16.0212 11.7488 17.35 9 17.35C6.2512 17.35 3.81288 16.0212 2.29192 13.9727L2.13797 13.7653L2.29068 13.5571C2.75427 12.9248 3.6899 12.4326 4.83488 12.0962ZM3.025 13.7772C4.42742 15.5289 6.58269 16.65 9 16.65C11.4173 16.65 13.5726 15.5289 14.975 13.7772C14.5943 13.4043 13.9117 13.0452 12.9678 12.7678C11.879 12.4479 10.5027 12.2545 9 12.2545C7.49728 12.2545 6.12102 12.4479 5.03221 12.7678C4.08829 13.0452 3.40575 13.4043 3.025 13.7772Z" fill="#001123"/>
</svg>
