<?xml version="1.0" encoding="UTF-8"?>
<svg id="Layer_1" data-name="Layer 1" xmlns="http://www.w3.org/2000/svg" version="1.1" viewBox="0 0 150 50">
  <defs>
    <style>
      .cls-1 {
        fill: #231f20;
        font-family: ArialMT, Arial;
        font-size: 15.2px;
      }

      .cls-2 {
        fill: #e96142;
        stroke-width: 0px;
      }
    </style>
  </defs>
  <g>
    <path class="cls-2" d="M25,22.1c.2-.2.3-.5.5-.6,1.7-1,3.5-2,5.2-3,.4-.3.8-.2,1.1.3.1.2.3.5.4.7.3.5.1.8-.3,1.1-1.7,1-3.5,2-5.2,3-.5.3-.8.1-1.1-.3-.2-.3-.4-.7-.6-1.1Z"/>
    <path class="cls-2" d="M26.1,13.5c.5.4,1.1.6,1.4,1,.2.2,0,.8-.2,1.1-.8,1.5-1.7,3.1-2.6,4.6-.2.4-.5.9-1,.7-.5-.2-.9-.6-1.4-.9,0,0,0-.5.1-.7,1-1.7,2-3.4,3-5.1.1-.2.4-.4.7-.6Z"/>
    <path class="cls-2" d="M25.1,30.3c0-1.4,1-1.9,2-1.3,1.5.9,3.1,1.8,4.6,2.6.8.5.9.7.3,1.6-.5.8-.7.9-1.5.4-1.6-.9-3.2-1.8-4.8-2.8-.3-.2-.5-.5-.6-.6Z"/>
    <path class="cls-2" d="M15.8,21c-.2-.2-.5-.3-.7-.6-1-1.7-2-3.4-2.9-5.1-.4-.6-.2-.9.5-1.3.9-.5,1.1-.5,1.5.1,1,1.7,2,3.4,2.9,5.1.3.5.2.9-.3,1.2-.3.2-.7.4-1.1.6Z"/>
    <path class="cls-2" d="M14.7,30.2c-.3.3-.4.5-.7.7-1.7,1-3.3,1.9-5,2.9-.7.4-.9.3-1.4-.6-.5-.8-.4-1.1.3-1.5,1.6-.9,3.2-1.9,4.8-2.7.3-.2.9-.3,1.1-.2.4.3.6.9,1,1.4Z"/>
    <path class="cls-2" d="M15.7,31.4c1.4.2,1.9,1,1.3,2.1-.9,1.5-1.7,3-2.6,4.5-.5.8-.7.9-1.5.4-.9-.5-1-.7-.5-1.6.9-1.6,1.8-3.2,2.8-4.8.2-.3.5-.5.6-.6Z"/>
    <path class="cls-2" d="M23.8,31.3c.2.2.5.3.6.6,1,1.7,2,3.4,2.9,5.1.4.7.2.9-.7,1.4-.8.4-1,.4-1.4-.3-.9-1.6-1.9-3.3-2.8-4.9-.4-.7-.4-1,.4-1.4.3-.2.5-.3.9-.5Z"/>
    <path class="cls-2" d="M14.5,22c0,1.3-1,1.9-2,1.4-1.5-.9-3-1.8-4.6-2.6-.8-.5-.9-.7-.4-1.5.5-.9.8-1,1.6-.5,1.6.9,3.2,1.8,4.8,2.8.3.2.4.4.6.5Z"/>
    <path class="cls-2" d="M21,15.9c0,1,0,1.9,0,2.9,0,.8-.2.9-1.2.9-1,0-1.2-.1-1.2-.9,0-1.9,0-3.8,0-5.8,0-.6.3-.9.9-.9.2,0,.4,0,.6,0,.6,0,.8.3.8.8,0,1,0,1.9,0,2.9Z"/>
    <path class="cls-2" d="M9.6,25c1,0,1.9,0,2.9,0,.8,0,.9.2.9,1.2,0,1-.1,1.2-.9,1.2-1.9,0-3.9,0-5.8,0-.8,0-.9-.2-.9-1.1,0-1,.1-1.2.9-1.2,1,0,2,0,2.9,0Z"/>
    <path class="cls-2" d="M30.1,27.3c-1,0-1.9,0-2.9,0-.8,0-.9-.2-1-1.1,0-1,.1-1.3.9-1.3,1.9,0,3.9,0,5.8,0,.8,0,.9.2.9,1.2,0,1-.1,1.1-.9,1.2-1,0-1.9,0-2.9,0Z"/>
    <path class="cls-2" d="M21,36.4c0,1,0,1.9,0,2.9,0,.8-.2.9-1.2.9-1,0-1.2-.1-1.2-.9,0-1.9,0-3.8,0-5.8,0-.8.2-.9,1.2-.9,1,0,1.2.1,1.2.9,0,1,0,1.9,0,2.9Z"/>
  </g>
  <text class="cls-1" transform="translate(44.9 30.4)"><tspan x="0" y="0">Loading asset</tspan></text>
</svg>