<svg width="161" height="40" viewBox="0 0 161 40" fill="none" xmlns="http://www.w3.org/2000/svg">
<path d="M19.6165 39.6101C30.3284 39.6101 39.0122 30.9263 39.0122 20.2144C39.0122 9.50244 30.3284 0.818695 19.6165 0.818695C8.90451 0.818695 0.220764 9.50244 0.220764 20.2144C0.220764 30.9263 8.90451 39.6101 19.6165 39.6101Z" fill="#AF1F00"/>
<path d="M20.5666 34.2483L20.5212 33.6412C23.7221 33.4025 26.7406 32.0153 29.0208 29.7352C31.3009 27.455 32.6881 24.4365 32.9268 21.2356L33.5339 21.2809C33.2844 24.6271 31.8345 27.7824 29.4513 30.1656C27.0681 32.5489 23.9127 33.9988 20.5666 34.2483ZM18.4335 34.2483C15.0873 33.9988 11.932 32.5489 9.54872 30.1656C7.16552 27.7824 5.7156 24.6271 5.46606 21.2809L6.07324 21.2356C6.31193 24.4365 7.69911 27.455 9.97928 29.7352C12.2594 32.0153 15.2779 33.4025 18.4788 33.6412L18.4335 34.2483ZM6.07324 19.1931L5.46606 19.1479C5.7156 15.8016 7.16555 12.6463 9.54872 10.2631C11.9319 7.87993 15.0873 6.42997 18.4335 6.18045L18.4788 6.78762C15.2779 7.02631 12.2594 8.4135 9.97928 10.6936C7.69912 12.9737 6.31193 15.9923 6.07324 19.1931ZM32.9268 19.1931C32.6881 15.9923 31.3009 12.9738 29.0208 10.6936C26.7406 8.4135 23.7221 7.02631 20.5212 6.78762L20.5666 6.18045C23.9127 6.42997 27.0681 7.87989 29.4513 10.2631C31.8345 12.6463 33.2844 15.8016 33.5339 19.1479L32.9268 19.1931Z" fill="white"/>
<path d="M19.242 35.1866L18.3685 35.1214C14.8132 34.8564 11.4611 33.3162 8.92958 30.7848C6.39806 28.2532 4.85793 24.9011 4.59285 21.3458L4.52773 20.4726L6.8816 20.2967L6.94672 21.1702C7.16983 24.162 8.46681 26.9837 10.5987 29.1157C12.7305 31.2475 15.5523 32.5443 18.544 32.7676L19.4173 32.8327L19.242 35.1866ZM19.7585 35.1866L19.5827 32.8327L20.4562 32.7676C23.448 32.5443 26.2697 31.2475 28.4017 29.1156C30.5335 26.9837 31.8305 24.162 32.0536 21.1702L32.1187 20.2967L34.4726 20.4726L34.4074 21.3458C34.1424 24.9011 32.6022 28.2532 30.0707 30.7848C27.5392 33.3162 24.1871 34.8564 20.6318 35.1214L19.7585 35.1866ZM32.1187 20.1312L32.0536 19.2579C31.8305 16.2663 30.5335 13.4445 28.4017 11.3126C26.2696 9.1807 23.4479 7.88371 20.4562 7.66073L19.5827 7.5956L19.7585 5.24173L20.6318 5.30685C24.1871 5.57187 27.5392 7.11212 30.0707 9.64353C32.6022 12.1751 34.1424 15.5272 34.4074 19.0825L34.4726 19.956L32.1187 20.1312ZM6.8816 20.1312L4.52773 19.956L4.59285 19.0825C4.85793 15.5272 6.39806 12.1751 8.92958 9.64353C11.4611 7.11212 14.8132 5.57187 18.3685 5.30685L19.242 5.24173L19.4173 7.5956L18.544 7.66073C15.5523 7.88383 12.7306 9.18069 10.5987 11.3127C8.46675 13.4445 7.16983 16.2663 6.94672 19.2579L6.8816 20.1312Z" fill="white"/>
<path d="M19.4999 20.0709L17.7024 18.2733L19.4999 4.91736V20.0709Z" fill="white"/>
<path d="M19.4999 20.3578L21.2975 22.1553L19.4999 35.5113V20.3578Z" fill="white"/>
<path d="M21.5905 18.1236L19.4999 2.59015L17.4093 18.1236L1.87592 20.2142L17.4093 22.3048L19.4999 37.8382L21.5905 22.3048L37.1239 20.2141L21.5905 18.1236Z" fill="white"/>
<path d="M19.5 39.7141L17.1868 22.5272L0 20.2142L17.1868 17.901L19.5 0.714111L21.8132 17.901L39 20.2142L21.8132 22.5272L19.5 39.7141ZM3.75202 20.2142L17.6319 22.0822L19.5 35.9621L21.3681 22.0822L35.248 20.2142L21.3681 18.346L19.5 4.46613L17.6319 18.346L3.75202 20.2142Z" fill="#AF1F00"/>
<path d="M19.3567 20.2139L17.5591 22.0115L4.20312 20.2139H19.3567Z" fill="white"/>
<path d="M28.3213 13.258L28.4729 12.6728L27.8713 12.7321C26.7253 12.8449 16.6198 13.8825 14.6976 15.5272C11.8541 17.9603 11.5201 22.2533 13.9531 25.0968C16.3862 27.9403 20.6792 28.2742 23.5228 25.8411C25.445 24.1964 28.0326 14.3727 28.3213 13.258Z" fill="#AF1F00"/>
<path d="M19.1232 27.5939C18.941 27.5939 18.758 27.5868 18.5743 27.5725C16.7314 27.4292 15.0565 26.5789 13.858 25.1783C12.6595 23.7776 12.0785 21.9914 12.2219 20.1485C12.3653 18.3057 13.2155 16.6308 14.6163 15.4323C15.4401 14.7273 17.7747 14.0543 21.5551 13.4319C24.4797 12.9504 27.3193 12.6608 27.8589 12.6076L28.6389 12.5308L28.4424 13.2896C28.3063 13.8147 27.5806 16.5772 26.6533 19.3901C25.4538 23.0288 24.4279 25.2313 23.604 25.9362C22.343 27.0152 20.7693 27.5939 19.1232 27.5939ZM28.3068 12.815L27.8835 12.8567C26.7415 12.9692 16.6721 14.0026 14.7789 15.6224C13.4291 16.7774 12.6095 18.3917 12.4713 20.1679C12.3331 21.9441 12.8932 23.6657 14.0482 25.0155C15.2032 26.3654 16.8175 27.1849 18.5937 27.323C20.3699 27.462 22.0915 26.9012 23.4414 25.7461C25.3337 24.1269 27.9124 14.3376 28.2001 13.2268L28.3068 12.815Z" fill="white"/>
<path d="M60.8167 24.2242C60.9813 24.2242 61.1276 24.2878 61.2548 24.4151L62.446 25.7072C61.7868 26.5239 60.9758 27.1493 60.0132 27.5839C59.0506 28.0184 57.8951 28.2354 56.5468 28.2354C55.3406 28.2354 54.2565 28.0297 53.2939 27.6176C52.3312 27.2056 51.5091 26.6325 50.8274 25.8984C50.1457 25.1643 49.6234 24.2878 49.2599 23.269C48.8967 22.2504 48.7151 21.138 48.7151 19.9318C48.7151 18.7108 48.9098 17.5929 49.2994 16.5776C49.6886 15.5629 50.2376 14.6883 50.9453 13.9539C51.6534 13.2198 52.4978 12.6487 53.4793 12.2405C54.4606 11.8323 55.5469 11.6279 56.7378 11.6279C57.9215 11.6279 58.9719 11.8229 59.8898 12.2122C60.8071 12.602 61.5881 13.1112 62.2325 13.7405L61.2211 15.1451C61.1613 15.235 61.0845 15.3135 60.9909 15.381C60.8971 15.4485 60.7679 15.4822 60.6033 15.4822C60.4908 15.4822 60.3745 15.4504 60.2549 15.3867C60.135 15.3231 60.0039 15.2444 59.8615 15.1505C59.7191 15.057 59.5543 14.9541 59.3672 14.8416C59.1798 14.7292 58.9626 14.6263 58.7154 14.5328C58.4682 14.4392 58.1818 14.3605 57.8559 14.2966C57.53 14.2332 57.1536 14.2011 56.7265 14.2011C55.9998 14.2011 55.3351 14.3303 54.7322 14.5887C54.1292 14.8474 53.6102 15.2219 53.1759 15.7124C52.7414 16.2031 52.4042 16.8025 52.1647 17.5103C51.9247 18.2183 51.8051 19.0254 51.8051 19.9318C51.8051 20.8458 51.9343 21.6584 52.1927 22.37C52.4511 23.0819 52.8012 23.681 53.2434 24.168C53.6853 24.6549 54.2057 25.0274 54.8051 25.2858C55.4045 25.5442 56.0487 25.6735 56.7378 25.6735C57.1498 25.6735 57.5226 25.6512 57.8559 25.6062C58.1892 25.5613 58.4965 25.4902 58.7774 25.3925C59.0583 25.2954 59.3241 25.1698 59.5751 25.0162C59.8259 24.8628 60.075 24.6735 60.3224 24.4489C60.397 24.3814 60.4758 24.3271 60.5583 24.2859C60.6406 24.2448 60.7268 24.2242 60.8167 24.2242Z" fill="#001123"/>
<path d="M80.7953 19.9318C80.7953 21.1229 80.5989 22.226 80.2055 23.241C79.8121 24.256 79.256 25.1342 78.5367 25.8759C77.8177 26.6174 76.9525 27.1963 75.9413 27.6119C74.9299 28.0278 73.8062 28.2354 72.5704 28.2354C71.3417 28.2354 70.2219 28.0278 69.2107 27.6119C68.1993 27.1963 67.3321 26.6174 66.6093 25.8759C65.8864 25.1342 65.3265 24.256 64.9295 23.241C64.5323 22.226 64.334 21.1229 64.334 19.9318C64.334 18.7407 64.5323 17.6379 64.9295 16.6226C65.3265 15.6076 65.8864 14.7292 66.6093 13.9877C67.3321 13.2462 68.1993 12.6674 69.2107 12.2518C70.2219 11.8359 71.3417 11.6279 72.5704 11.6279C73.3942 11.6279 74.1694 11.7237 74.8961 11.9146C75.6228 12.1055 76.2894 12.3752 76.8963 12.7236C77.5031 13.072 78.0482 13.4953 78.5312 13.9935C79.0143 14.4916 79.4245 15.0477 79.7616 15.6619C80.0988 16.2761 80.3553 16.943 80.5314 17.662C80.7072 18.381 80.7953 19.1379 80.7953 19.9318ZM77.7052 19.9318C77.7052 19.0405 77.5854 18.2406 77.3459 17.5328C77.1058 16.8248 76.7651 16.2237 76.3232 15.7294C75.8812 15.2351 75.3438 14.8568 74.711 14.5945C74.0778 14.3322 73.3643 14.2011 72.5704 14.2011C71.7762 14.2011 71.0627 14.3322 70.4298 14.5945C69.7967 14.8568 69.2573 15.2351 68.8118 15.7294C68.366 16.2237 68.0231 16.8248 67.7837 17.5328C67.5436 18.2406 67.424 19.0405 67.424 19.9318C67.424 20.8234 67.5436 21.6228 67.7837 22.3308C68.0231 23.0386 68.366 23.638 68.8118 24.1285C69.2573 24.6192 69.7967 24.9956 70.4298 25.2579C71.0627 25.5201 71.7762 25.6513 72.5704 25.6513C73.3643 25.6513 74.0778 25.5201 74.711 25.2579C75.3438 24.9956 75.8812 24.6192 76.3232 24.1285C76.7651 23.638 77.1058 23.0386 77.3459 22.3308C77.5854 21.6228 77.7052 20.8234 77.7052 19.9318Z" fill="#001123"/>
<path d="M102.2 11.808V28.0559H99.5373V17.561C99.5373 17.1415 99.5598 16.6886 99.6048 16.2014L94.6946 25.4265C94.4623 25.8687 94.1065 26.0895 93.6269 26.0895H93.2001C92.7206 26.0895 92.3648 25.8687 92.1327 25.4265L87.166 16.1677C87.1885 16.4148 87.2071 16.6584 87.2222 16.8982C87.2373 17.138 87.2447 17.3588 87.2447 17.561V28.0559H84.5818V11.808H86.8626C86.9975 11.808 87.1136 11.8119 87.211 11.8193C87.3084 11.8267 87.3964 11.8456 87.4751 11.8755C87.5536 11.9054 87.6249 11.954 87.6886 12.0215C87.7522 12.089 87.8139 12.1789 87.874 12.2911L92.7395 21.314C92.8668 21.5538 92.9847 21.801 93.0934 22.0555C93.2017 22.3104 93.3084 22.5727 93.4135 22.8423C93.5183 22.5652 93.6269 22.2972 93.7394 22.0388C93.8519 21.7804 93.9715 21.5313 94.0991 21.2915L98.897 12.2911C98.9568 12.1789 99.0205 12.089 99.088 12.0215C99.1555 11.954 99.2284 11.9054 99.3072 11.8755C99.3856 11.8456 99.4737 11.8267 99.5711 11.8193C99.6684 11.8119 99.7845 11.808 99.9195 11.808L102.2 11.808Z" fill="#001123"/>
<path d="M112.223 11.808C113.309 11.808 114.249 11.9353 115.043 12.1899C115.837 12.4448 116.493 12.8006 117.009 13.2576C117.526 13.7146 117.91 14.2614 118.161 14.8981C118.412 15.5348 118.537 16.2316 118.537 16.9879C118.537 17.7747 118.406 18.4956 118.144 19.151C117.882 19.8066 117.489 20.3701 116.964 20.8422C116.44 21.314 115.783 21.6811 114.992 21.9433C114.202 22.2056 113.279 22.3365 112.223 22.3365H109.964V28.0559H106.942V11.808L112.223 11.808ZM112.223 19.977C112.777 19.977 113.26 19.9078 113.672 19.769C114.084 19.6305 114.427 19.4319 114.7 19.1735C114.974 18.915 115.178 18.6004 115.313 18.2295C115.447 17.8589 115.515 17.4449 115.515 16.9879C115.515 16.5536 115.447 16.1602 115.313 15.8083C115.178 15.4561 114.976 15.1565 114.706 14.9093C114.436 14.6621 114.095 14.4729 113.683 14.3417C113.271 14.2109 112.785 14.1453 112.223 14.1453H109.964V19.977H112.223Z" fill="#001123"/>
<path d="M134.764 28.0559H132.427C132.165 28.0559 131.951 27.9903 131.787 27.8592C131.622 27.7284 131.498 27.5654 131.416 27.3704L130.202 24.0557H123.472L122.258 27.3704C122.198 27.5429 122.082 27.7001 121.91 27.8425C121.737 27.9849 121.524 28.0559 121.269 28.0559H118.909L125.303 11.808H128.382L134.764 28.0559ZM129.427 21.9208L127.449 16.516C127.352 16.2763 127.251 15.9918 127.146 15.6621C127.041 15.3326 126.936 14.9768 126.831 14.5947C126.734 14.9768 126.633 15.3345 126.528 15.6678C126.423 16.0011 126.322 16.2914 126.224 16.5385L124.258 21.9208H129.427Z" fill="#001123"/>
<path d="M146.225 14.7629C146.135 14.9204 146.039 15.0345 145.938 15.1059C145.837 15.1769 145.712 15.2126 145.562 15.2126C145.405 15.2126 145.234 15.1547 145.05 15.0384C144.867 14.9223 144.648 14.7931 144.393 14.6507C144.139 14.5084 143.841 14.3792 143.5 14.2631C143.159 14.1471 142.757 14.0889 142.292 14.0889C141.872 14.0889 141.506 14.1394 141.191 14.2406C140.876 14.3416 140.612 14.482 140.399 14.662C140.185 14.8417 140.026 15.057 139.921 15.308C139.816 15.559 139.764 15.8345 139.764 16.1338C139.764 16.5159 139.871 16.8344 140.084 17.089C140.297 17.3438 140.58 17.5608 140.933 17.7408C141.284 17.9205 141.685 18.0818 142.135 18.2239C142.584 18.3662 143.045 18.5179 143.517 18.679C143.989 18.84 144.449 19.0274 144.899 19.2408C145.348 19.4542 145.749 19.7239 146.101 20.0498C146.453 20.3757 146.736 20.7746 146.95 21.2464C147.163 21.7185 147.27 22.2916 147.27 22.9656C147.27 23.7 147.144 24.3872 146.893 25.0274C146.642 25.668 146.275 26.2263 145.792 26.7017C145.309 27.1776 144.719 27.5521 144.023 27.8253C143.326 28.0988 142.528 28.2354 141.629 28.2354C141.112 28.2354 140.603 28.185 140.101 28.0837C139.599 27.9828 139.118 27.8385 138.657 27.6511C138.196 27.464 137.764 27.2394 137.359 26.9771C136.955 26.7148 136.595 26.4227 136.28 26.1006L137.168 24.6511C137.243 24.5463 137.34 24.4582 137.46 24.3872C137.58 24.3158 137.708 24.2802 137.843 24.2802C138.03 24.2802 138.232 24.3573 138.449 24.5106C138.666 24.6642 138.925 24.8349 139.225 25.022C139.524 25.2093 139.874 25.3797 140.275 25.533C140.676 25.6867 141.157 25.7635 141.719 25.7635C142.58 25.7635 143.247 25.5594 143.719 25.1512C144.191 24.743 144.427 24.1567 144.427 23.3927C144.427 22.9656 144.32 22.6172 144.107 22.3475C143.893 22.0779 143.611 21.8516 143.258 21.6678C142.906 21.4842 142.506 21.329 142.056 21.2014C141.607 21.0741 141.15 20.9356 140.685 20.7858C140.221 20.636 139.764 20.4563 139.314 20.2465C138.865 20.0369 138.464 19.7634 138.112 19.4262C137.76 19.0891 137.477 18.6677 137.264 18.1621C137.05 17.6565 136.944 17.0327 136.944 16.2912C136.944 15.6995 137.061 15.1226 137.297 14.5608C137.533 13.9989 137.876 13.5008 138.326 13.0662C138.775 12.632 139.329 12.2836 139.989 12.0213C140.648 11.7593 141.404 11.6279 142.258 11.6279C143.217 11.6279 144.101 11.778 144.91 12.0775C145.719 12.3771 146.408 12.7966 146.978 13.3359L146.225 14.7629Z" fill="#001123"/>
<path d="M159.675 14.7629C159.585 14.9204 159.489 15.0345 159.388 15.1059C159.287 15.1769 159.161 15.2126 159.011 15.2126C158.854 15.2126 158.684 15.1547 158.5 15.0384C158.317 14.9223 158.097 14.7931 157.843 14.6507C157.588 14.5084 157.29 14.3792 156.95 14.2631C156.609 14.1471 156.206 14.0889 155.742 14.0889C155.322 14.0889 154.955 14.1394 154.641 14.2406C154.326 14.3416 154.062 14.482 153.848 14.662C153.635 14.8417 153.476 15.057 153.371 15.308C153.266 15.559 153.214 15.8345 153.214 16.1338C153.214 16.5159 153.32 16.8344 153.534 17.089C153.747 17.3438 154.03 17.5608 154.382 17.7408C154.734 17.9205 155.135 18.0818 155.584 18.2239C156.034 18.3662 156.495 18.5179 156.966 18.679C157.438 18.84 157.899 19.0274 158.348 19.2408C158.798 19.4542 159.199 19.7239 159.551 20.0498C159.903 20.3757 160.186 20.7746 160.399 21.2464C160.613 21.7185 160.719 22.2916 160.719 22.9656C160.719 23.7 160.594 24.3872 160.343 25.0274C160.092 25.668 159.725 26.2263 159.242 26.7017C158.759 27.1776 158.169 27.5521 157.472 27.8253C156.775 28.0988 155.978 28.2354 155.079 28.2354C154.562 28.2354 154.052 28.185 153.551 28.0837C153.049 27.9828 152.568 27.8385 152.107 27.6511C151.646 27.464 151.213 27.2394 150.809 26.9771C150.404 26.7148 150.045 26.4227 149.73 26.1006L150.618 24.6511C150.693 24.5463 150.79 24.4582 150.91 24.3872C151.03 24.3158 151.157 24.2802 151.292 24.2802C151.479 24.2802 151.681 24.3573 151.899 24.5106C152.116 24.6642 152.374 24.8349 152.674 25.022C152.974 25.2093 153.324 25.3797 153.725 25.533C154.125 25.6867 154.607 25.7635 155.169 25.7635C156.03 25.7635 156.697 25.5594 157.169 25.1512C157.641 24.743 157.877 24.1567 157.877 23.3927C157.877 22.9656 157.77 22.6172 157.556 22.3475C157.343 22.0779 157.06 21.8516 156.708 21.6678C156.356 21.4842 155.955 21.329 155.506 21.2014C155.056 21.0741 154.599 20.9356 154.135 20.7858C153.67 20.636 153.214 20.4563 152.764 20.2465C152.315 20.0369 151.914 19.7634 151.562 19.4262C151.21 19.0891 150.927 18.6677 150.713 18.1621C150.5 17.6565 150.393 17.0327 150.393 16.2912C150.393 15.6995 150.511 15.1226 150.747 14.5608C150.983 13.9989 151.326 13.5008 151.775 13.0662C152.225 12.632 152.779 12.2836 153.438 12.0213C154.097 11.7593 154.854 11.6279 155.708 11.6279C156.667 11.6279 157.551 11.778 158.36 12.0775C159.169 12.3771 159.858 12.7966 160.427 13.3359L159.675 14.7629Z" fill="#001123"/>
</svg>
