<svg width="13" height="15" viewBox="0 0 13 15" fill="none" xmlns="http://www.w3.org/2000/svg">
<path d="M0.482956 15C0.419532 15 0.356734 14.9873 0.298138 14.9626C0.239541 14.9379 0.186297 14.9018 0.14145 14.8562C0.0966029 14.8106 0.0610286 14.7564 0.0367591 14.6968C0.0124896 14.6373 -3.68846e-06 14.5734 8.16845e-10 14.5089L8.16845e-10 0.491059C3.02067e-06 0.404994 0.0222528 0.320442 0.0645154 0.245873C0.106778 0.171305 0.167572 0.10934 0.240804 0.0661872C0.314037 0.0230348 0.397143 0.000210907 0.481784 1.45468e-06C0.566424 -0.000207997 0.649623 0.0222044 0.723062 0.0649938L12.7571 7.07694C12.831 7.11994 12.8923 7.18199 12.9349 7.25682C12.9776 7.33166 13 7.41661 13 7.5031C13 7.58959 12.9775 7.67454 12.9348 7.74936C12.8922 7.82417 12.8308 7.8862 12.757 7.92917L0.722912 14.9351C0.649865 14.9776 0.567141 15 0.482956 15Z" fill="white"/>
</svg>
