<svg width="16" height="16" viewBox="0 0 16 16" fill="none" xmlns="http://www.w3.org/2000/svg">
<path fill-rule="evenodd" clip-rule="evenodd" d="M6.60777 12.0155C9.5944 12.0155 12.0155 9.5944 12.0155 6.60777C12.0155 3.62114 9.5944 1.2 6.60777 1.2C3.62114 1.2 1.2 3.62114 1.2 6.60777C1.2 9.5944 3.62114 12.0155 6.60777 12.0155ZM6.60777 13.2155C10.2571 13.2155 13.2155 10.2571 13.2155 6.60777C13.2155 2.9584 10.2571 0 6.60777 0C2.9584 0 0 2.9584 0 6.60777C0 10.2571 2.9584 13.2155 6.60777 13.2155Z" fill="#001123"/>
<path fill-rule="evenodd" clip-rule="evenodd" d="M10.8079 10.9033C11.0422 10.669 11.4221 10.669 11.6564 10.9033L15.4803 14.7272C15.7146 14.9615 15.7146 15.3414 15.4803 15.5757C15.246 15.81 14.8661 15.81 14.6318 15.5757L10.8079 11.7519C10.5736 11.5175 10.5736 11.1376 10.8079 10.9033Z" fill="#001123"/>
</svg>
