<?xml version="1.0" encoding="utf-8"?>
<!-- Generator: Adobe Illustrator 27.5.0, SVG Export Plug-In . SVG Version: 6.00 Build 0)  -->
<svg version="1.1" id="Layer_1" xmlns="http://www.w3.org/2000/svg" xmlns:xlink="http://www.w3.org/1999/xlink" x="0px" y="0px"
	 viewBox="0 0 40 40" style="enable-background:new 0 0 40 40;" xml:space="preserve">
<path d="M25.3,10.7L20,5.4l-5.3,5.3l-1.4-1.4L20,2.6l6.7,6.7L25.3,10.7z"/>
<path d="M19,4h2v21h-2V4z"/>
<path d="M30,37H10c-1.7,0-3-1.3-3-3V16c0-1.7,1.3-3,3-3h7v2h-7c-0.6,0-1,0.4-1,1v18c0,0.6,0.4,1,1,1h20c0.6,0,1-0.4,1-1V16
	c0-0.6-0.4-1-1-1h-7v-2h7c1.7,0,3,1.3,3,3v18C33,35.7,31.7,37,30,37z"/>
</svg>
